<?xml version="1.0" encoding="UTF-8" standalone="no"?>
<!-- Created with Inkscape (http://www.inkscape.org/) -->

<svg
   xmlns:dc="http://purl.org/dc/elements/1.1/"
   xmlns:cc="http://creativecommons.org/ns#"
   xmlns:rdf="http://www.w3.org/1999/02/22-rdf-syntax-ns#"
   xmlns:svg="http://www.w3.org/2000/svg"
   xmlns="http://www.w3.org/2000/svg"
   xmlns:sodipodi="http://sodipodi.sourceforge.net/DTD/sodipodi-0.dtd"
   xmlns:inkscape="http://www.inkscape.org/namespaces/inkscape"
   width="150"
   height="150"
   id="svg2"
   version="1.1"
   inkscape:version="0.48.3.1 r9886"
   sodipodi:docname="pimagizer-1.svg"
   inkscape:export-filename="/home/victor/Documentos/Desarrollo/Pimagizer/pimagizer/src/pimagizer-1.png"
   inkscape:export-xdpi="88.243073"
   inkscape:export-ydpi="88.243073">
  <defs
     id="defs4">
    <marker
       inkscape:stockid="Arrow2Lend"
       orient="auto"
       refY="0"
       refX="0"
       id="Arrow2Lend"
       style="overflow:visible">
      <path
         id="path4183"
         style="fill-rule:evenodd;stroke-width:0.625;stroke-linejoin:round"
         d="M 8.7185878,4.0337352 -2.2072895,0.01601326 8.7185884,-4.0017078 c -1.7454984,2.3720609 -1.7354408,5.6174519 -6e-7,8.035443 z"
         transform="matrix(-1.1,0,0,-1.1,-1.1,0)"
         inkscape:connector-curvature="0" />
    </marker>
  </defs>
  <sodipodi:namedview
     id="base"
     pagecolor="#ffffff"
     bordercolor="#666666"
     borderopacity="1.0"
     inkscape:pageopacity="0.0"
     inkscape:pageshadow="2"
     inkscape:zoom="2.8284271"
     inkscape:cx="26.05105"
     inkscape:cy="53.287718"
     inkscape:document-units="px"
     inkscape:current-layer="layer1"
     showgrid="true"
     inkscape:window-width="1440"
     inkscape:window-height="844"
     inkscape:window-x="0"
     inkscape:window-y="26"
     inkscape:window-maximized="1"
     showguides="true"
     inkscape:guide-bbox="true"
     fit-margin-top="0"
     fit-margin-left="0"
     fit-margin-right="0"
     fit-margin-bottom="0"
     inkscape:snap-midpoints="true"
     inkscape:snap-nodes="false"
     inkscape:snap-bbox="true"
     inkscape:snap-global="true"
     inkscape:showpageshadow="false"
     borderlayer="false"
     showborder="true" />
  <metadata
     id="metadata7">
    <rdf:RDF>
      <cc:Work
         rdf:about="">
        <dc:format>image/svg+xml</dc:format>
        <dc:type
           rdf:resource="http://purl.org/dc/dcmitype/StillImage" />
        <dc:title />
      </cc:Work>
    </rdf:RDF>
  </metadata>
  <g
     inkscape:label="Capa 1"
     inkscape:groupmode="layer"
     id="layer1"
     transform="translate(-104.44453,-428.76981)">
    <g
       transform="matrix(0.97154983,-0.41512893,0.27567579,0.91149108,0,0)"
       style="font-size:40px;font-style:normal;font-variant:normal;font-weight:normal;font-stretch:normal;line-height:125%;letter-spacing:0.63px;word-spacing:1.67999995px;fill:#000000;fill-opacity:1;stroke:none;font-family:Neucha;-inkscape-font-specification:Neucha"
       id="text5788" />
    <g
       id="g4850"
       style="fill:#aad400"
       transform="matrix(0.29412411,0,0,0.29412411,73.726203,408.54596)">
      <path
         inkscape:connector-curvature="0"
         id="rect2985"
         d="M 104.44001,129.89535 232.30907,511.55394 542.78335,450.42305 414.91429,68.764457 104.44001,129.89535 z m 38.39618,21.708 251.40226,-49.4999 86.55175,258.33628 -251.40226,49.49991 -86.55175,-258.33629 z"
         style="fill:#aad400;fill-opacity:1" />
      <g
         id="text5794"
         style="font-size:73.65079498px;font-style:normal;font-variant:normal;font-weight:normal;font-stretch:normal;line-height:125%;letter-spacing:1.16000009px;word-spacing:3.09333348px;fill:#aad400;fill-opacity:1;stroke:none;font-family:Neucha;-inkscape-font-specification:Neucha"
         transform="matrix(0.95980897,-0.20928235,0.26633233,0.98380134,-4,-62.571429)">
        <path
           inkscape:connector-curvature="0"
           d="m 332.82911,435.68447 -2.40625,-0.16407 c -0.76564,-2.04164 -2.05991,-3.06247 -3.88281,-3.0625 -0.8021,3e-5 -1.65887,0.18232 -2.57032,0.54688 -0.87501,0.3646 -1.60417,0.74742 -2.1875,1.14844 -0.58334,0.3646 -1.34896,0.91147 -2.29687,1.64062 -1e-5,0.51044 -0.0182,2.16929 -0.0547,4.97656 0,2.80731 0.0182,5.92449 0.0547,9.35157 0.0729,3.42708 0.14583,5.26823 0.21875,5.52343 -0.32813,1.09375 -0.96615,1.64063 -1.91406,1.64063 -0.65626,0 -1.29428,-0.25521 -1.91407,-0.76563 -0.58333,-0.54687 -0.94791,-1.20312 -1.09375,-1.96875 0.69271,-11.70311 1.3125,-20.54425 1.85938,-26.52343 l 2.46094,0.54687 0.16406,3.66406 c 2.55207,-2.11455 4.73957,-3.17184 6.5625,-3.17187 2.00519,3e-5 3.68227,0.45575 5.03125,1.36719 1.3854,0.91148 2.0781,2.24221 2.07812,3.99218 -2e-5,0.5469 -0.0365,0.96617 -0.10937,1.25782 m -21.99593,15.53125 0.54688,2.40625 c -1.60419,0.58333 -3.99221,1.23958 -7.16406,1.96875 -3.13543,0.6927 -5.46877,1.03906 -7,1.03906 -1.56772,0 -2.93491,-0.51042 -4.10157,-1.53125 -1.16667,-1.05729 -2.04167,-2.38802 -2.625,-3.99219 -0.58333,-1.64062 -1.02083,-3.24478 -1.3125,-4.8125 -0.25521,-1.60415 -0.38281,-3.17186 -0.38281,-4.70312 0,-9.11456 4.11979,-13.67185 12.35938,-13.67188 1.96873,3e-5 3.7005,0.63805 5.19531,1.91406 1.49477,1.23961 2.24216,2.86201 2.24219,4.86719 -3e-5,1.09377 -0.30992,2.05992 -0.92969,2.89844 -0.58335,0.83856 -1.31252,1.51304 -2.1875,2.02344 -0.83856,0.47397 -1.93231,0.91147 -3.28125,1.3125 -1.31252,0.40105 -2.47918,0.69272 -3.5,0.875 -1.02085,0.1823 -2.2422,0.38282 -3.66406,0.60156 -1.42189,0.21876 -2.40626,0.38282 -2.95313,0.49219 0.0365,1.0573 0.0911,1.98699 0.16406,2.78906 0.10937,0.80209 0.29166,1.67709 0.54688,2.625 0.29166,0.91146 0.65624,1.67709 1.09375,2.29687 0.47395,0.58334 1.11197,1.07553 1.91406,1.47657 0.80207,0.40104 1.74999,0.60156 2.84375,0.60156 1.31249,0 2.91665,-0.10937 4.8125,-0.32813 1.89582,-0.2552 3.5729,-0.51041 5.03125,-0.76562 1.49477,-0.25521 2.27862,-0.38281 2.35156,-0.38281 m -18.53906,-11.70313 c 4.95832,-1.42186 9.02342,-2.91665 12.19531,-4.48437 -0.25522,-1.20311 -0.60158,-2.07811 -1.03906,-2.625 -0.43751,-0.54686 -1.09376,-0.82029 -1.96875,-0.82032 -2.22397,3e-5 -4.2474,0.76565 -6.07031,2.29688 -1.78647,1.53127 -2.82553,3.40887 -3.11719,5.63281 m -28.39438,-9.02344 -0.76562,-3.28125 c 0.47396,3e-5 2.3151,-0.0364 5.52344,-0.10937 3.20832,-0.10935 5.72394,-0.16404 7.54687,-0.16406 3.5729,2e-5 6.58071,0.16409 9.02344,0.49218 -0.0365,0.18232 -0.0547,0.43753 -0.0547,0.76563 -2e-5,0.1094 -2e-5,0.36461 0,0.76562 0.0364,0.36461 0.0547,0.7292 0.0547,1.09375 -1.56773,2.80732 -4.39325,6.69013 -8.47656,11.64844 -4.04689,4.92189 -6.85418,8.56771 -8.42188,10.9375 1.20312,0 3.68228,0.0182 7.4375,0.0547 3.75519,0.0365 6.89061,0.0547 9.40625,0.0547 0.0364,0.32812 0.0729,0.72916 0.10938,1.20312 0.0364,0.4375 0.0729,0.82031 0.10937,1.14844 0.0364,0.32812 0.0547,0.63802 0.0547,0.92969 -3e-5,0.40104 -0.0183,0.72916 -0.0547,0.98437 -2.18752,-0.0729 -9.78908,-0.10938 -22.80469,-0.10937 -0.10937,-0.65625 -0.16406,-1.1849 -0.16406,-1.58594 0,-0.36458 0.0547,-1.03906 0.16406,-2.02344 0.54688,-1.09375 3.31771,-4.73958 8.3125,-10.9375 5.03124,-6.1979 7.85676,-10.20831 8.47657,-12.03125 -1.2396,-0.0729 -2.27867,-0.10935 -3.11719,-0.10937 -1.13022,2e-5 -3.08074,0.0547 -5.85156,0.16406 -2.77084,0.0729 -4.94011,0.1094 -6.50782,0.10937 m -9.14438,-2.07814 2.51563,0.54687 c 0.29166,2.98961 0.54687,7.69273 0.76562,14.10938 0.21875,6.38021 0.36458,10.33594 0.4375,11.86719 -0.32813,1.1302 -0.96615,1.69531 -1.91406,1.69531 -0.65625,0 -1.29427,-0.25521 -1.91406,-0.76563 -0.58334,-0.54687 -0.94792,-1.20312 -1.09375,-1.96875 0.0729,-1.49478 0.21875,-5.37759 0.4375,-11.64843 0.21875,-6.30728 0.47395,-10.91925 0.76562,-13.83594 m 0.76563,-9.78906 c 0.98437,3e-5 1.80468,0.43753 2.46094,1.3125 0.65624,0.83857 0.98436,1.80472 0.98437,2.89843 -10e-6,0.80212 -0.20053,1.45837 -0.60156,1.96875 -0.36459,0.47399 -0.87501,0.71097 -1.53125,0.71094 -1.02084,3e-5 -1.82292,-0.41924 -2.40625,-1.25781 -0.58334,-0.83851 -0.875,-1.82288 -0.875,-2.95313 0,-0.80204 0.16406,-1.44006 0.49219,-1.91406 0.36458,-0.51038 0.85676,-0.76559 1.47656,-0.76562 m -10.62093,9.67968 2.46093,-0.54687 c -2e-5,1.09378 0.0182,1.95055 0.0547,2.57031 0.21873,7.98439 0.3281,13.1797 0.32813,15.58594 -3e-5,0.83855 0.0182,2.15105 0.0547,3.9375 0.0364,1.78646 0.0547,3.13542 0.0547,4.04687 -2e-5,2.00521 -0.0729,3.73698 -0.21875,5.19532 -0.1094,1.45832 -0.38283,2.97134 -0.82031,4.53906 -0.43752,1.60416 -1.03908,2.89843 -1.80469,3.88281 -0.72918,1.02082 -1.78647,1.85936 -3.17187,2.51563 -1.34898,0.65623 -2.95314,0.98436 -4.8125,0.98437 -1.60418,-10e-6 -4.4297,-0.23699 -8.47657,-0.71094 -0.0365,-0.40105 -0.10937,-0.83855 -0.21875,-1.3125 -0.0729,-0.47397 -0.10937,-0.83855 -0.10937,-1.09375 0,-0.54688 0.0547,-0.98438 0.16406,-1.3125 0.29166,0.0365 1.42187,0.18228 3.39063,0.4375 2.0052,0.2552 3.48176,0.3828 4.42968,0.38282 2.51562,-2e-5 4.44791,-0.76564 5.79688,-2.29688 1.34894,-1.53126 2.04165,-4.39323 2.07812,-8.58594 -1.78647,1.02084 -3.66407,1.53125 -5.63281,1.53125 -1.64064,0 -3.08074,-0.34635 -4.32031,-1.03906 -1.23959,-0.65625 -2.22397,-1.49479 -2.95313,-2.51562 -0.72917,-1.05729 -1.33073,-2.3151 -1.80468,-3.77344 -0.43751,-1.49479 -0.7474,-2.93489 -0.92969,-4.32031 -0.14584,-1.38541 -0.21875,-2.86197 -0.21875,-4.42969 0,-3.93748 0.85677,-7.23696 2.57031,-9.89844 1.74999,-2.66143 4.39322,-3.99216 7.92969,-3.99219 2.07811,3e-5 4.11977,0.63805 6.125,1.91407 0.0364,-0.36456 0.0547,-0.92966 0.0547,-1.69532 m -0.65625,22.91407 0.16406,-17.66407 c -0.21877,-0.65622 -0.91148,-1.16664 -2.07813,-1.53125 -1.13022,-0.40101 -2.38803,-0.60153 -3.77343,-0.60156 -1.96876,3e-5 -3.50001,0.91148 -4.59375,2.73438 -1.09376,1.78647 -1.64064,3.97397 -1.64063,6.5625 -1e-5,1.34897 0.0729,2.6797 0.21875,3.99218 0.14583,1.27605 0.43749,2.69793 0.875,4.26563 0.43749,1.53125 1.14843,2.77084 2.13281,3.71875 0.98437,0.94792 2.20572,1.42188 3.66407,1.42187 1.09373,1e-5 2.09633,-0.2552 3.00781,-0.76562 0.91144,-0.54687 1.58592,-1.25781 2.02344,-2.13281 m -37.746,-18.32032 -1.09375,-2.78906 c 0.94792,-0.94789 2.15104,-1.69528 3.60938,-2.24219 1.45832,-0.5833 2.89843,-0.87497 4.32031,-0.875 6.16144,3e-5 9.24217,5.32294 9.24219,15.96875 -2e-5,1.45835 -0.0912,3.60939 -0.27344,6.45313 -0.14585,2.84375 -0.21877,4.97656 -0.21875,6.39844 -0.29168,1.1302 -0.85679,1.69531 -1.69531,1.69531 -0.65627,0 -1.25783,-0.32813 -1.80469,-0.98438 -0.54689,-0.65625 -0.82033,-1.38541 -0.82031,-2.1875 -2e-5,-0.2552 0.0182,-0.43749 0.0547,-0.54687 -2.26043,2.1875 -4.66668,3.28125 -7.21875,3.28125 -1.9323,0 -3.62761,-0.69271 -5.08594,-2.07813 -1.42188,-1.42187 -2.13281,-3.13541 -2.13281,-5.14062 0,-3.39062 1.31249,-6.45311 3.9375,-9.1875 2.66145,-2.73436 5.66926,-4.10154 9.02343,-4.10156 0.14582,2e-5 0.29166,0.0182 0.4375,0.0547 0.14582,2e-5 0.30989,0.0183 0.49219,0.0547 0.21874,0.0365 0.3828,0.0547 0.49219,0.0547 -0.29168,-4.2656 -1.98699,-6.39841 -5.08594,-6.39844 -1.82292,3e-5 -3.88282,0.8568 -6.17969,2.57031 m 11.42969,17.11719 c 0.0729,-2.55207 0.10936,-4.48436 0.10938,-5.79687 -2e-5,-1.09374 -0.0365,-2.62499 -0.10938,-4.59375 l -0.4375,0 c -2.58855,0.0365 -4.95834,1.00262 -7.10937,2.89843 -2.11459,1.89585 -3.17188,4.19272 -3.17188,6.89063 0,1.16667 0.34635,2.09636 1.03906,2.78906 0.72916,0.69271 1.60416,1.03907 2.625,1.03906 1.60416,10e-6 3.95572,-1.07551 7.05469,-3.22656 m -31.34751,-15.14848 c 0.14582,2.04169 0.25519,4.46617 0.32813,7.27344 0.0729,2.77085 0.12758,5.57813 0.16406,8.42188 0.0729,2.84375 0.12759,4.77604 0.16406,5.79687 -0.8021,0.21875 -1.54949,0.32813 -2.24219,0.32813 -0.54689,0 -1.0573,-0.0911 -1.53125,-0.27344 -0.10938,-1.42188 -0.1823,-3.04427 -0.21875,-4.86719 -0.0365,-1.82291 -0.0547,-3.42707 -0.0547,-4.8125 -2e-5,-1.42186 -0.0365,-2.89842 -0.10938,-4.42969 -0.0365,-1.53123 -0.12762,-2.84373 -0.27344,-3.9375 -0.14584,-1.09373 -0.36459,-2.09633 -0.65625,-3.00781 -0.29167,-0.94789 -0.71094,-1.67706 -1.25781,-2.1875 -0.51043,-0.51039 -1.14845,-0.78383 -1.91406,-0.82031 -0.76563,2e-5 -1.38543,0.16408 -1.85938,0.49219 -0.47396,0.32814 -0.98438,0.92971 -1.53125,1.80468 l 0,21.65625 c -0.54688,0.29167 -1.20313,0.4375 -1.96875,0.4375 -0.58333,0 -1.23958,-0.0911 -1.96875,-0.27343 0.10938,-2.29688 0.18229,-6.81771 0.21875,-13.5625 0.0365,-6.74478 0.18229,-11.73956 0.4375,-14.98438 l 2.46094,0.54688 0.16406,2.78906 c 1.09375,-1.71352 2.47916,-2.57029 4.15625,-2.57031 2.47916,2e-5 4.57551,1.09377 6.28907,3.28125 1.05727,-2.18748 2.77081,-3.28123 5.14062,-3.28125 0.9479,2e-5 1.76821,0.1094 2.46094,0.32812 3.97393,1.13023 5.96091,6.21617 5.96094,15.25781 -3e-5,1.31251 -0.0547,3.08074 -0.16407,5.30469 -0.0729,2.1875 -0.1094,3.66407 -0.10937,4.42969 -3e-5,1.02083 0.0547,1.85937 0.16406,2.51562 -1.89586,0.51042 -3.0443,0.76563 -3.44531,0.76563 -0.36461,0 -0.61982,-0.0365 -0.76563,-0.10938 -0.14585,-0.47396 -0.21877,-1.34895 -0.21875,-2.625 -2e-5,-0.80208 0.0547,-2.4427 0.16407,-4.92187 0.10935,-2.51562 0.16403,-4.48437 0.16406,-5.90625 -3e-5,-7.58332 -1.49482,-11.41144 -4.48438,-11.48438 -0.69272,0.0365 -1.29429,0.25524 -1.80468,0.65625 -0.51044,0.36461 -1.13023,1.02086 -1.85938,1.96875 m -24.83967,-6.45312 2.51563,0.54687 c 0.29166,2.98961 0.54687,7.69273 0.76562,14.10938 0.21875,6.38021 0.36458,10.33594 0.4375,11.86719 -0.32813,1.1302 -0.96615,1.69531 -1.91406,1.69531 -0.65625,0 -1.29427,-0.25521 -1.91406,-0.76563 -0.58334,-0.54687 -0.94792,-1.20312 -1.09375,-1.96875 0.0729,-1.49478 0.21875,-5.37759 0.4375,-11.64843 0.21875,-6.30728 0.47396,-10.91925 0.76562,-13.83594 m 0.76563,-9.78906 c 0.98437,3e-5 1.80468,0.43753 2.46094,1.3125 0.65624,0.83857 0.98436,1.80472 0.98437,2.89843 -1e-5,0.80212 -0.20053,1.45837 -0.60156,1.96875 -0.36459,0.47399 -0.87501,0.71097 -1.53125,0.71094 -1.02084,3e-5 -1.82292,-0.41924 -2.40625,-1.25781 -0.58334,-0.83851 -0.875,-1.82288 -0.875,-2.95313 0,-0.80204 0.16406,-1.44006 0.49219,-1.91406 0.36458,-0.51038 0.85676,-0.76559 1.47656,-0.76562 m -32.4501,-130.3816 11.63218,-4.87569 c 0.14817,4.8572 0.31834,7.57339 0.5104,8.14861 9.71713,-7.57772 23.51421,-13.00216 41.3913,-16.27332 19.26548,-3.52487 33.8333,-0.84833 43.70354,8.02961 9.86538,8.7265 15.08755,22.57607 15.6665,41.54872 0.51388,16.84797 -3.74631,31.66939 -12.78058,44.46429 -9.03449,12.79509 -23.01089,20.92335 -41.92923,24.38481 -3.12421,0.5717 -15.64855,1.94752 -37.57308,4.12748 0.68514,11.01665 1.90498,28.11691 3.65951,51.30084 -1.41856,4.99107 -4.38414,7.89945 -8.89676,8.72514 -3.12417,0.57162 -6.19626,-0.011 -9.21627,-1.74786 -2.84186,-1.61684 -4.65854,-3.95545 -5.45003,-7.01586 0.13171,-12.84498 -0.10471,-37.75665 -0.70925,-74.73511 -0.431,-37.01005 -0.43374,-65.7039 -0.008,-86.08166 m 14.95107,18.09833 4.2499,70.65311 c 9.68488,2.8069 20.77561,3.06706 33.27223,0.78046 11.97581,-2.19116 22.00887,-7.9953 30.09921,-17.41241 8.09016,-9.41694 11.96163,-19.81728 11.61443,-31.20108 -0.37518,-12.29424 -5.0523,-22.58042 -14.03137,-30.85857 -8.97925,-8.27783 -19.97745,-11.22594 -32.99464,-8.84432 -10.58743,1.93736 -21.324,7.56495 -32.20976,16.88281"
           style="font-size:56px;fill:#aad400"
           id="path5816" />
      </g>
    </g>
    <g
       id="g4855"
       style="fill:#3771c8;fill-opacity:1"
       transform="matrix(0.29412411,0,0,0.29412411,73.730805,408.27023)">
      <path
         inkscape:connector-curvature="0"
         id="rect2985-2"
         d="m 347.84642,347.61978 77.75029,232.06605 188.78271,-37.1704 -77.7503,-232.06607 -188.7827,37.17042 z m 23.34664,13.19946 152.8642,-30.09823 52.62746,157.08041 -152.86419,30.09822 -52.62747,-157.0804 z"
         style="fill:#3771c8;fill-opacity:1" />
      <g
         id="text5794-7"
         style="font-size:73.65079498px;font-style:normal;font-variant:normal;font-weight:normal;font-stretch:normal;line-height:125%;letter-spacing:1.16000009px;word-spacing:3.09333348px;fill:#3771c8;fill-opacity:1;stroke:none;font-family:Neucha;-inkscape-font-specification:Neucha"
         transform="matrix(0.95980897,-0.20928235,0.26633233,0.98380134,134.37945,138.48009)">
        <path
           sodipodi:nodetypes="ccccccscccscccccccscccc"
           inkscape:connector-curvature="0"
           d="m 223.45791,299.44023 7.37568,-3.09155 c 0.0939,3.07983 0.20185,4.8021 0.32363,5.16683 6.16139,-4.80485 14.90978,-8.24435 26.2452,-10.31851 12.21577,-2.23503 21.45286,-0.53791 27.71134,5.09138 6.25539,5.53325 9.56664,14.31492 9.93374,26.34501 0.32584,10.68288 -2.37544,20.08078 -8.10385,28.19371 -5.72855,8.11305 -14.59064,13.26698 -26.58629,15.46181 -1.98098,0.3625 -9.92236,1.23487 -23.82416,2.61713 0.43443,6.98538 1.2079,17.82824 2.3204,32.52859 -0.89947,3.16472 -2.77987,5.00885 -5.64121,5.5324 -1.98096,0.36245 -3.9289,-0.007 -5.84381,-1.10828 -1.80195,-1.02519 -2.95387,-2.50805 -3.45573,-4.44858 0.0835,-8.14468 -0.0664,-23.94056 -0.44972,-47.38769 -0.27329,-23.46715 -0.27502,-41.66122 -0.005,-54.58225 m 9.4801,11.4757 2.69476,44.7994 c 6.14094,1.77978 13.1733,1.94474 21.0971,0.49487 7.59356,-1.38936 13.95528,-5.06963 19.08516,-11.04078 5.12977,-5.97105 7.58458,-12.56565 7.36443,-19.78384 -0.2379,-7.79547 -3.20354,-14.31768 -8.89695,-19.56665 -5.69352,-5.24877 -12.66721,-7.11809 -20.92108,-5.60797 -6.71323,1.22843 -13.52103,4.79675 -20.42342,10.70497"
           style="font-size:56px;fill:#3771c8;fill-opacity:1;stroke:none"
           id="path5816-0" />
      </g>
    </g>
    <path
       style="fill:#ffffff;fill-opacity:1;stroke:#aad400;stroke-width:0.4606089;stroke-linejoin:bevel;stroke-miterlimit:4;stroke-opacity:1;stroke-dasharray:none"
       d="m 153.84277,531.90611 c -0.056,0.005 -0.10925,0.02 -0.16625,0.0322 -3.15755,2.20563 -6.80758,9.70564 -9.47856,12.69943 -1.05334,2.75537 -1.15042,5.18848 0.86513,5.92656 1.55498,0.15226 2.57794,-0.189 3.2879,-1.12281 0.77756,5.47935 3.3818,10.57303 7.65541,13.42699 9.07501,6.21652 22.09987,6.8622 32.73987,5.87364 5.63543,-0.57746 11.14859,-2.29781 16.09766,-5.1889 -3.08992,0.233 -6.10554,-1.28072 -9.16841,-0.66331 -8.67925,3.71453 -21.06798,3.75498 -29.71403,0.27818 -9.00338,-4.86912 -11.82847,-9.40844 -11.52521,-13.23462 0.90611,0.43951 1.80507,2.32476 3.98296,2.54044 1.11344,-1.36825 0.64753,-2.34809 0.44053,-3.63623 -1.09857,-6.39589 -1.50822,-5.2809 -2.16496,-12.13842 -0.028,-2.19639 -1.12074,-4.977 -2.85189,-4.79307 z"
       id="path5724"
       inkscape:connector-curvature="0"
       sodipodi:nodetypes="cccccccccccccccc" />
    <path
       style="fill:#ffffff;fill-opacity:1;stroke:#3771c8;stroke-width:0.4606089;stroke-linejoin:bevel;stroke-miterlimit:4;stroke-opacity:1;stroke-dasharray:none"
       d="m 235.52812,542.38811 c 0.0532,0.0175 0.10775,0.0277 0.16475,0.0403 3.79066,-0.68198 10.24422,-5.96641 13.92288,-7.56778 2.1993,-1.79303 3.95245,-3.99558 2.73864,-6.04816 -1.2465,-1.00769 -3.46493,-0.60354 -4.50039,-0.0525 1.58664,-5.30195 1.35279,-11.01796 -1.33435,-15.39838 -5.64095,-9.44358 -17.20039,-15.48037 -27.27774,-19.03487 -5.35993,-1.83368 -11.08703,-2.57824 -16.79177,-2.02335 2.90387,1.08131 5.00935,3.71808 8.04952,4.43899 9.43716,0.25815 20.70602,5.4056 27.10374,12.18137 6.13971,8.18984 6.98198,13.17509 5.1055,16.52331 -1.10704,-2.65016 -0.96592,-3.30732 -2.59579,-3.36852 -1.06444,0.3195 -1.81743,2.74959 -2.00085,4.88485 -1.6786,6.26866 -0.89539,3.37497 -3.1685,9.87804 -0.89376,2.00653 -1.06479,4.98927 0.58446,5.54665 z"
       id="path5724-3"
       inkscape:connector-curvature="0"
       sodipodi:nodetypes="cccccccccccccccc" />
    <path
       style="fill:#3771c8;fill-opacity:1"
       d="m 231.56611,499.58072 -18.66172,3.67515 1.6907,4.90055 13.27354,-2.61339 0.72292,2.15723 5.56403,-0.3898 z"
       id="rect2985-2-3"
       inkscape:connector-curvature="0"
       sodipodi:nodetypes="ccccccc" />
  </g>
</svg>
