<?xml version="1.0" encoding="UTF-8" standalone="no"?>
<!-- Created with Inkscape (http://www.inkscape.org/) -->

<svg
   xmlns:dc="http://purl.org/dc/elements/1.1/"
   xmlns:cc="http://creativecommons.org/ns#"
   xmlns:rdf="http://www.w3.org/1999/02/22-rdf-syntax-ns#"
   xmlns:svg="http://www.w3.org/2000/svg"
   xmlns="http://www.w3.org/2000/svg"
   xmlns:sodipodi="http://sodipodi.sourceforge.net/DTD/sodipodi-0.dtd"
   xmlns:inkscape="http://www.inkscape.org/namespaces/inkscape"
   width="39.901878"
   height="30.68"
   id="svg2"
   version="1.1"
   inkscape:version="0.48.4 r9939"
   sodipodi:docname="px.svg">
  <defs
     id="defs4" />
  <sodipodi:namedview
     id="base"
     pagecolor="#ffffff"
     bordercolor="#666666"
     borderopacity="1.0"
     inkscape:pageopacity="0.0"
     inkscape:pageshadow="2"
     inkscape:zoom="7.9195959"
     inkscape:cx="53.006647"
     inkscape:cy="2.5670585"
     inkscape:document-units="px"
     inkscape:current-layer="text2985"
     showgrid="false"
     fit-margin-top="0"
     fit-margin-left="0"
     fit-margin-right="0"
     fit-margin-bottom="0"
     inkscape:window-width="1440"
     inkscape:window-height="835"
     inkscape:window-x="0"
     inkscape:window-y="27"
     inkscape:window-maximized="1" />
  <metadata
     id="metadata7">
    <rdf:RDF>
      <cc:Work
         rdf:about="">
        <dc:format>image/svg+xml</dc:format>
        <dc:type
           rdf:resource="http://purl.org/dc/dcmitype/StillImage" />
      </cc:Work>
    </rdf:RDF>
  </metadata>
  <g
     inkscape:label="Capa 1"
     inkscape:groupmode="layer"
     id="layer1"
     transform="translate(-80.461411,-278.25362)">
    <g
       style="font-size:40px;font-style:normal;font-variant:normal;font-weight:normal;font-stretch:normal;line-height:125%;letter-spacing:0px;word-spacing:0px;fill:#000000;fill-opacity:1;stroke:none;font-family:Neucha;-inkscape-font-specification:Neucha"
       id="text2985"
       transform="translate(-36.744299,0)">
      <path
         d="m 135.44571,288.89362 c -2e-5,5.94668 -1.53335,9.74667 -4.6,11.4 -1.25335,0.66667 -3.69334,1 -4.6,1 -0.90666,0 -3.84,-0.58596 -3.84,-0.58596 l 0,8.25364 -5.2,0.0223 0,-30.73 10.24,0 c 3.09332,3e-5 5.19998,0.88003 6.32,2.64 1.11998,1.73336 1.67998,4.40002 1.68,8 m -5.2,0.8 c -1e-5,-4.50665 -1.44001,-6.75998 -4.32,-6.76 l -3.52,0 0,11.73642 c 0,0 2.74667,1.14357 3.52,1.14358 0.77333,0 2.65332,-0.47999 3.32,-1.44 0.66665,-0.98665 0.99999,-2.54665 1,-4.68"
         style="font-family:Viga;-inkscape-font-specification:Viga"
         id="path2998"
         inkscape:connector-curvature="0"
         sodipodi:nodetypes="cczccccscccscczcc" />
      <path
         d="m 157.10759,308.93362 -5.84,0 -4.04,-7 -3.8,7 -6.24,0 7.4,-11.64 -7.12,-11.2 5.84,0 4,6.6 3.88,-6.6 5.84,0 -7.12,11.2 7.2,11.64"
         style="font-size:40px;baseline-shift:sub"
         id="path3000"
         inkscape:connector-curvature="0" />
    </g>
  </g>
</svg>
